<svg width="44" height="44" viewBox="0 0 44 44" fill="none" xmlns="http://www.w3.org/2000/svg">
<path d="M11.5 14.125C11.5 13.5156 11.9688 13 12.625 13H31.375C31.9844 13 32.5 13.5156 32.5 14.125C32.5 14.7812 31.9844 15.25 31.375 15.25H12.625C11.9688 15.25 11.5 14.7812 11.5 14.125ZM11.5 21.625C11.5 21.0156 11.9688 20.5 12.625 20.5H31.375C31.9844 20.5 32.5 21.0156 32.5 21.625C32.5 22.2812 31.9844 22.75 31.375 22.75H12.625C11.9688 22.75 11.5 22.2812 11.5 21.625ZM31.375 30.25H12.625C11.9688 30.25 11.5 29.7812 11.5 29.125C11.5 28.5156 11.9688 28 12.625 28H31.375C31.9844 28 32.5 28.5156 32.5 29.125C32.5 29.7812 31.9844 30.25 31.375 30.25Z" fill="white"/>
</svg>
